<svg width="1024" height="1024" viewBox="0 0 1024 1024" xmlns="http://www.w3.org/2000/svg"><defs><clipPath id="sq-time-zaxis-1024-v9g32"><path d="M1024.00,512.00 L1022.77,672.30 L1019.06,738.15 L1012.86,787.86 L1004.13,828.73 L992.82,863.53 L978.87,893.63 L962.16,919.80 L942.54,942.54 L919.80,962.16 L893.63,978.87 L863.53,992.82 L828.73,1004.13 L787.86,1012.86 L738.15,1019.06 L672.30,1022.77 L512.00,1024.00 L351.70,1022.77 L285.85,1019.06 L236.14,1012.86 L195.27,1004.13 L160.47,992.82 L130.37,978.87 L104.20,962.16 L81.46,942.54 L61.84,919.80 L45.13,893.63 L31.18,863.53 L19.87,828.73 L11.14,787.86 L4.94,738.15 L1.23,672.30 L0.00,512.00 L1.23,351.70 L4.94,285.85 L11.14,236.14 L19.87,195.27 L31.18,160.47 L45.13,130.37 L61.84,104.20 L81.46,81.46 L104.20,61.84 L130.37,45.13 L160.47,31.18 L195.27,19.87 L236.14,11.14 L285.85,4.94 L351.70,1.23 L512.00,0.00 L672.30,1.23 L738.15,4.94 L787.86,11.14 L828.73,19.87 L863.53,31.18 L893.63,45.13 L919.80,61.84 L942.54,81.46 L962.16,104.20 L978.87,130.37 L992.82,160.47 L1004.13,195.27 L1012.86,236.14 L1019.06,285.85 L1022.77,351.70 L1024.00,512.00 Z"></path></clipPath><linearGradient id="bg-sq-time-zaxis-1024-v9g32" x1="0" y1="0" x2="0" y2="1"><stop offset="0" stop-color="hsl(42.222222222222214 45.76271186440677% 91.4313725490196%)"></stop><stop offset="1" stop-color="hsl(42.222222222222214 45.76271186440677% 84.4313725490196%)"></stop></linearGradient></defs><g><rect x="0" y="0" width="1024" height="1024" fill="url(#bg-sq-time-zaxis-1024-v9g32)"></rect><g opacity="0.06" stroke="#1c2434" stroke-width="1.2" fill="none"><path d="M0 200 L1024 60 M0 500 L1024 360 M0 800 L1024 660"></path></g><g><g transform="translate(486 542) rotate(-14)"><rect x="-260" y="-260" width="520" height="520" rx="78" fill="hsl(22.22222222222222 52% 18.117647058823536%)" filter="drop-shadow(0 7.2px 18px rgba(0,0,0,0.10))"></rect></g><g transform="translate(500 520) rotate(5.6)"><rect x="-270" y="-270" width="540" height="540" rx="82" fill="hsl(22.22222222222222 57% 30.117647058823536%)" filter="drop-shadow(0 10.799999999999999px 25.2px rgba(0,0,0,0.14))"></rect></g><g transform="translate(512 500) rotate(-7)"><rect x="-300" y="-300" width="600" height="600" rx="90" fill="#b45f2d" filter="drop-shadow(0 18px 39.6px rgba(0,0,0,0.20))"></rect><g transform="translate(0 0) scale(1.9) translate(-100 -100)" color="hsl(42.222222222222214 45.76271186440677% 92.4313725490196%)"><g fill="none" stroke="currentColor" stroke-width="14" stroke-linecap="round" stroke-linejoin="round"><circle cx="100" cy="100" r="68"></circle><line x1="100" y1="44" x2="100" y2="58"></line><line x1="100" y1="100" x2="140" y2="74"></line><line x1="100" y1="100" x2="100" y2="64"></line></g></g></g></g></g></svg>